<mxfile host="app.diagrams.net" modified="2021-07-19T08:48:59.796Z" agent="5.0 (Windows NT 10.0; Win64; x64) AppleWebKit/537.36 (KHTML, like Gecko) Chrome/91.0.4472.124 Safari/537.36" etag="0CFPSm902VIb_S1y0gk-" version="14.9.0" type="github">
  <diagram id="R2lEEEUBdFMjLlhIrx00" name="Page-1">
    <mxGraphModel dx="2272" dy="762" grid="1" gridSize="10" guides="1" tooltips="1" connect="1" arrows="1" fold="1" page="1" pageScale="1" pageWidth="850" pageHeight="1100" math="0" shadow="0" extFonts="Permanent Marker^https://fonts.googleapis.com/css?family=Permanent+Marker">
      <root>
        <mxCell id="0" />
        <mxCell id="1" parent="0" />
        <mxCell id="C-vyLk0tnHw3VtMMgP7b-2" value="Education" style="shape=table;startSize=30;container=1;collapsible=1;childLayout=tableLayout;fixedRows=1;rowLines=0;fontStyle=1;align=center;resizeLast=1;fillColor=#f5f5f5;strokeColor=#666666;fontColor=#333333;" parent="1" vertex="1">
          <mxGeometry x="460" y="110" width="250" height="120" as="geometry">
            <mxRectangle x="460" y="110" width="90" height="30" as="alternateBounds" />
          </mxGeometry>
        </mxCell>
        <mxCell id="C-vyLk0tnHw3VtMMgP7b-3" value="" style="shape=partialRectangle;collapsible=0;dropTarget=0;pointerEvents=0;fillColor=none;points=[[0,0.5],[1,0.5]];portConstraint=eastwest;top=0;left=0;right=0;bottom=1;" parent="C-vyLk0tnHw3VtMMgP7b-2" vertex="1">
          <mxGeometry y="30" width="250" height="50" as="geometry" />
        </mxCell>
        <mxCell id="C-vyLk0tnHw3VtMMgP7b-4" value="PK" style="shape=partialRectangle;overflow=hidden;connectable=0;fillColor=none;top=0;left=0;bottom=0;right=0;fontStyle=1;" parent="C-vyLk0tnHw3VtMMgP7b-3" vertex="1">
          <mxGeometry width="30" height="50" as="geometry" />
        </mxCell>
        <mxCell id="C-vyLk0tnHw3VtMMgP7b-5" value="EDU_CODE" style="shape=partialRectangle;overflow=hidden;connectable=0;fillColor=none;top=0;left=0;bottom=0;right=0;align=left;spacingLeft=6;fontStyle=5;" parent="C-vyLk0tnHw3VtMMgP7b-3" vertex="1">
          <mxGeometry x="30" width="220" height="50" as="geometry" />
        </mxCell>
        <mxCell id="C-vyLk0tnHw3VtMMgP7b-6" value="" style="shape=partialRectangle;collapsible=0;dropTarget=0;pointerEvents=0;fillColor=none;points=[[0,0.5],[1,0.5]];portConstraint=eastwest;top=0;left=0;right=0;bottom=0;" parent="C-vyLk0tnHw3VtMMgP7b-2" vertex="1">
          <mxGeometry y="80" width="250" height="30" as="geometry" />
        </mxCell>
        <mxCell id="C-vyLk0tnHw3VtMMgP7b-7" value="" style="shape=partialRectangle;overflow=hidden;connectable=0;fillColor=none;top=0;left=0;bottom=0;right=0;" parent="C-vyLk0tnHw3VtMMgP7b-6" vertex="1">
          <mxGeometry width="30" height="30" as="geometry" />
        </mxCell>
        <mxCell id="C-vyLk0tnHw3VtMMgP7b-8" value="EDU_TITLE&#xa;EDU_DESCRIPTION" style="shape=partialRectangle;overflow=hidden;connectable=0;fillColor=none;top=0;left=0;bottom=0;right=0;align=left;spacingLeft=6;" parent="C-vyLk0tnHw3VtMMgP7b-6" vertex="1">
          <mxGeometry x="30" width="220" height="30" as="geometry" />
        </mxCell>
        <mxCell id="C-vyLk0tnHw3VtMMgP7b-13" value="Employee" style="shape=table;startSize=30;container=1;collapsible=1;childLayout=tableLayout;fixedRows=1;rowLines=0;fontStyle=1;align=center;resizeLast=1;fillColor=#f5f5f5;strokeColor=#666666;fontColor=#333333;" parent="1" vertex="1">
          <mxGeometry x="130" y="270" width="250" height="200" as="geometry" />
        </mxCell>
        <mxCell id="C-vyLk0tnHw3VtMMgP7b-14" value="" style="shape=partialRectangle;collapsible=0;dropTarget=0;pointerEvents=0;fillColor=none;points=[[0,0.5],[1,0.5]];portConstraint=eastwest;top=0;left=0;right=0;bottom=1;" parent="C-vyLk0tnHw3VtMMgP7b-13" vertex="1">
          <mxGeometry y="30" width="250" height="30" as="geometry" />
        </mxCell>
        <mxCell id="C-vyLk0tnHw3VtMMgP7b-15" value="PK" style="shape=partialRectangle;overflow=hidden;connectable=0;fillColor=none;top=0;left=0;bottom=0;right=0;fontStyle=1;" parent="C-vyLk0tnHw3VtMMgP7b-14" vertex="1">
          <mxGeometry width="30" height="30" as="geometry" />
        </mxCell>
        <mxCell id="C-vyLk0tnHw3VtMMgP7b-16" value="EMP_NUM" style="shape=partialRectangle;overflow=hidden;connectable=0;fillColor=none;top=0;left=0;bottom=0;right=0;align=left;spacingLeft=6;fontStyle=5;" parent="C-vyLk0tnHw3VtMMgP7b-14" vertex="1">
          <mxGeometry x="30" width="220" height="30" as="geometry" />
        </mxCell>
        <mxCell id="C-vyLk0tnHw3VtMMgP7b-17" value="" style="shape=partialRectangle;collapsible=0;dropTarget=0;pointerEvents=0;fillColor=none;points=[[0,0.5],[1,0.5]];portConstraint=eastwest;top=0;left=0;right=0;bottom=0;" parent="C-vyLk0tnHw3VtMMgP7b-13" vertex="1">
          <mxGeometry y="60" width="250" height="140" as="geometry" />
        </mxCell>
        <mxCell id="C-vyLk0tnHw3VtMMgP7b-18" value="&#xa;&#xa;&#xa;&#xa;&#xa;&#xa;&#xa;FK1&#xa;FK2" style="shape=partialRectangle;overflow=hidden;connectable=0;fillColor=none;top=0;left=0;bottom=0;right=0;" parent="C-vyLk0tnHw3VtMMgP7b-17" vertex="1">
          <mxGeometry width="30" height="140" as="geometry" />
        </mxCell>
        <mxCell id="C-vyLk0tnHw3VtMMgP7b-19" value="EMP_FNAME&#xa;EMP_LNAME&#xa;STREET&#xa;CITY&#xa;STATE&#xa;EMP_POSITION&#xa;EMP_DOB&#xa;DEPT_CODE&#xa;OB_CODE" style="shape=partialRectangle;overflow=hidden;connectable=0;fillColor=none;top=0;left=0;bottom=0;right=0;align=left;spacingLeft=6;verticalAlign=top;" parent="C-vyLk0tnHw3VtMMgP7b-17" vertex="1">
          <mxGeometry x="30" width="220" height="140" as="geometry" />
        </mxCell>
        <mxCell id="pjrwoAT1iINBEWoW5p7u-14" style="edgeStyle=orthogonalEdgeStyle;rounded=0;orthogonalLoop=1;jettySize=auto;html=1;exitX=0.5;exitY=1;exitDx=0;exitDy=0;entryX=0.5;entryY=0;entryDx=0;entryDy=0;startArrow=ERzeroToMany;startFill=1;endArrow=ERmandOne;endFill=0;" edge="1" parent="1" source="C-vyLk0tnHw3VtMMgP7b-23" target="C-vyLk0tnHw3VtMMgP7b-13">
          <mxGeometry relative="1" as="geometry" />
        </mxCell>
        <mxCell id="C-vyLk0tnHw3VtMMgP7b-23" value="Employee_Education" style="shape=table;startSize=30;container=1;collapsible=1;childLayout=tableLayout;fixedRows=1;rowLines=0;fontStyle=1;align=center;resizeLast=1;fillColor=#f5f5f5;strokeColor=#666666;fontColor=#333333;" parent="1" vertex="1">
          <mxGeometry x="130" y="110" width="250" height="120" as="geometry">
            <mxRectangle x="130" y="110" width="150" height="30" as="alternateBounds" />
          </mxGeometry>
        </mxCell>
        <mxCell id="C-vyLk0tnHw3VtMMgP7b-24" value="" style="shape=partialRectangle;collapsible=0;dropTarget=0;pointerEvents=0;fillColor=none;points=[[0,0.5],[1,0.5]];portConstraint=eastwest;top=0;left=0;right=0;bottom=1;" parent="C-vyLk0tnHw3VtMMgP7b-23" vertex="1">
          <mxGeometry y="30" width="250" height="50" as="geometry" />
        </mxCell>
        <mxCell id="C-vyLk0tnHw3VtMMgP7b-25" value="PK,FK1&#xa;PK,FK2" style="shape=partialRectangle;overflow=hidden;connectable=0;fillColor=none;top=0;left=0;bottom=0;right=0;fontStyle=1;" parent="C-vyLk0tnHw3VtMMgP7b-24" vertex="1">
          <mxGeometry width="50" height="50" as="geometry" />
        </mxCell>
        <mxCell id="C-vyLk0tnHw3VtMMgP7b-26" value="EMP_NUM&#xa;EDU_CODE" style="shape=partialRectangle;overflow=hidden;connectable=0;fillColor=none;top=0;left=0;bottom=0;right=0;align=left;spacingLeft=6;fontStyle=5;" parent="C-vyLk0tnHw3VtMMgP7b-24" vertex="1">
          <mxGeometry x="50" width="200" height="50" as="geometry" />
        </mxCell>
        <mxCell id="pjrwoAT1iINBEWoW5p7u-11" value="EARNED_DATE" style="text;html=1;align=center;verticalAlign=middle;resizable=0;points=[];autosize=1;strokeColor=none;" vertex="1" parent="1">
          <mxGeometry x="180" y="200" width="100" height="20" as="geometry" />
        </mxCell>
        <mxCell id="pjrwoAT1iINBEWoW5p7u-13" style="edgeStyle=orthogonalEdgeStyle;rounded=0;orthogonalLoop=1;jettySize=auto;html=1;exitX=1;exitY=0.5;exitDx=0;exitDy=0;entryX=0;entryY=0.5;entryDx=0;entryDy=0;startArrow=ERoneToMany;startFill=0;endArrow=ERmandOne;endFill=0;" edge="1" parent="1" source="C-vyLk0tnHw3VtMMgP7b-24" target="C-vyLk0tnHw3VtMMgP7b-3">
          <mxGeometry relative="1" as="geometry" />
        </mxCell>
        <mxCell id="pjrwoAT1iINBEWoW5p7u-15" value="Job" style="shape=table;startSize=30;container=1;collapsible=1;childLayout=tableLayout;fixedRows=1;rowLines=0;fontStyle=1;align=center;resizeLast=1;fillColor=#f5f5f5;strokeColor=#666666;fontColor=#333333;" vertex="1" parent="1">
          <mxGeometry x="460" y="280" width="250" height="110" as="geometry">
            <mxRectangle x="460" y="110" width="90" height="30" as="alternateBounds" />
          </mxGeometry>
        </mxCell>
        <mxCell id="pjrwoAT1iINBEWoW5p7u-16" value="" style="shape=partialRectangle;collapsible=0;dropTarget=0;pointerEvents=0;fillColor=none;points=[[0,0.5],[1,0.5]];portConstraint=eastwest;top=0;left=0;right=0;bottom=1;" vertex="1" parent="pjrwoAT1iINBEWoW5p7u-15">
          <mxGeometry y="30" width="250" height="30" as="geometry" />
        </mxCell>
        <mxCell id="pjrwoAT1iINBEWoW5p7u-17" value="PK" style="shape=partialRectangle;overflow=hidden;connectable=0;fillColor=none;top=0;left=0;bottom=0;right=0;fontStyle=1;" vertex="1" parent="pjrwoAT1iINBEWoW5p7u-16">
          <mxGeometry width="30" height="30" as="geometry" />
        </mxCell>
        <mxCell id="pjrwoAT1iINBEWoW5p7u-18" value="JOB_CODE" style="shape=partialRectangle;overflow=hidden;connectable=0;fillColor=none;top=0;left=0;bottom=0;right=0;align=left;spacingLeft=6;fontStyle=5;" vertex="1" parent="pjrwoAT1iINBEWoW5p7u-16">
          <mxGeometry x="30" width="220" height="30" as="geometry" />
        </mxCell>
        <mxCell id="pjrwoAT1iINBEWoW5p7u-19" value="" style="shape=partialRectangle;collapsible=0;dropTarget=0;pointerEvents=0;fillColor=none;points=[[0,0.5],[1,0.5]];portConstraint=eastwest;top=0;left=0;right=0;bottom=0;" vertex="1" parent="pjrwoAT1iINBEWoW5p7u-15">
          <mxGeometry y="60" width="250" height="50" as="geometry" />
        </mxCell>
        <mxCell id="pjrwoAT1iINBEWoW5p7u-20" value="" style="shape=partialRectangle;overflow=hidden;connectable=0;fillColor=none;top=0;left=0;bottom=0;right=0;" vertex="1" parent="pjrwoAT1iINBEWoW5p7u-19">
          <mxGeometry width="30" height="50" as="geometry" />
        </mxCell>
        <mxCell id="pjrwoAT1iINBEWoW5p7u-21" value="JOB_TITLE&#xa;JOB_DESCRIPTION" style="shape=partialRectangle;overflow=hidden;connectable=0;fillColor=none;top=0;left=0;bottom=0;right=0;align=left;spacingLeft=6;" vertex="1" parent="pjrwoAT1iINBEWoW5p7u-19">
          <mxGeometry x="30" width="220" height="50" as="geometry" />
        </mxCell>
        <mxCell id="pjrwoAT1iINBEWoW5p7u-22" style="edgeStyle=orthogonalEdgeStyle;rounded=0;orthogonalLoop=1;jettySize=auto;html=1;entryX=0.004;entryY=-0.1;entryDx=0;entryDy=0;entryPerimeter=0;startArrow=ERoneToMany;startFill=0;endArrow=ERmandOne;endFill=0;dashed=1;" edge="1" parent="1" source="C-vyLk0tnHw3VtMMgP7b-17" target="pjrwoAT1iINBEWoW5p7u-19">
          <mxGeometry relative="1" as="geometry" />
        </mxCell>
        <mxCell id="pjrwoAT1iINBEWoW5p7u-23" value="Department" style="shape=table;startSize=30;container=1;collapsible=1;childLayout=tableLayout;fixedRows=1;rowLines=0;fontStyle=1;align=center;resizeLast=1;fillColor=#f5f5f5;strokeColor=#666666;fontColor=#333333;" vertex="1" parent="1">
          <mxGeometry x="-210" y="280" width="250" height="110" as="geometry">
            <mxRectangle x="460" y="110" width="90" height="30" as="alternateBounds" />
          </mxGeometry>
        </mxCell>
        <mxCell id="pjrwoAT1iINBEWoW5p7u-24" value="" style="shape=partialRectangle;collapsible=0;dropTarget=0;pointerEvents=0;fillColor=none;points=[[0,0.5],[1,0.5]];portConstraint=eastwest;top=0;left=0;right=0;bottom=1;" vertex="1" parent="pjrwoAT1iINBEWoW5p7u-23">
          <mxGeometry y="30" width="250" height="30" as="geometry" />
        </mxCell>
        <mxCell id="pjrwoAT1iINBEWoW5p7u-25" value="PK" style="shape=partialRectangle;overflow=hidden;connectable=0;fillColor=none;top=0;left=0;bottom=0;right=0;fontStyle=1;" vertex="1" parent="pjrwoAT1iINBEWoW5p7u-24">
          <mxGeometry width="30" height="30" as="geometry" />
        </mxCell>
        <mxCell id="pjrwoAT1iINBEWoW5p7u-26" value="DEPT_CODE" style="shape=partialRectangle;overflow=hidden;connectable=0;fillColor=none;top=0;left=0;bottom=0;right=0;align=left;spacingLeft=6;fontStyle=5;" vertex="1" parent="pjrwoAT1iINBEWoW5p7u-24">
          <mxGeometry x="30" width="220" height="30" as="geometry" />
        </mxCell>
        <mxCell id="pjrwoAT1iINBEWoW5p7u-27" value="" style="shape=partialRectangle;collapsible=0;dropTarget=0;pointerEvents=0;fillColor=none;points=[[0,0.5],[1,0.5]];portConstraint=eastwest;top=0;left=0;right=0;bottom=0;" vertex="1" parent="pjrwoAT1iINBEWoW5p7u-23">
          <mxGeometry y="60" width="250" height="50" as="geometry" />
        </mxCell>
        <mxCell id="pjrwoAT1iINBEWoW5p7u-28" value="" style="shape=partialRectangle;overflow=hidden;connectable=0;fillColor=none;top=0;left=0;bottom=0;right=0;" vertex="1" parent="pjrwoAT1iINBEWoW5p7u-27">
          <mxGeometry width="30" height="50" as="geometry" />
        </mxCell>
        <mxCell id="pjrwoAT1iINBEWoW5p7u-29" value="DEPT_NAME&#xa;DEPT_MANAGER" style="shape=partialRectangle;overflow=hidden;connectable=0;fillColor=none;top=0;left=0;bottom=0;right=0;align=left;spacingLeft=6;" vertex="1" parent="pjrwoAT1iINBEWoW5p7u-27">
          <mxGeometry x="30" width="220" height="50" as="geometry" />
        </mxCell>
        <mxCell id="pjrwoAT1iINBEWoW5p7u-30" style="edgeStyle=orthogonalEdgeStyle;rounded=0;orthogonalLoop=1;jettySize=auto;html=1;exitX=0;exitY=0.5;exitDx=0;exitDy=0;entryX=1;entryY=0.5;entryDx=0;entryDy=0;dashed=1;startArrow=ERoneToMany;startFill=0;endArrow=ERmandOne;endFill=0;" edge="1" parent="1" source="C-vyLk0tnHw3VtMMgP7b-17" target="pjrwoAT1iINBEWoW5p7u-24">
          <mxGeometry relative="1" as="geometry" />
        </mxCell>
        <mxCell id="pjrwoAT1iINBEWoW5p7u-38" style="edgeStyle=orthogonalEdgeStyle;rounded=0;orthogonalLoop=1;jettySize=auto;html=1;exitX=0.5;exitY=0;exitDx=0;exitDy=0;entryX=0.5;entryY=0.993;entryDx=0;entryDy=0;entryPerimeter=0;startArrow=ERzeroToMany;startFill=1;endArrow=ERmandOne;endFill=0;" edge="1" parent="1" source="pjrwoAT1iINBEWoW5p7u-31" target="C-vyLk0tnHw3VtMMgP7b-17">
          <mxGeometry relative="1" as="geometry" />
        </mxCell>
        <mxCell id="pjrwoAT1iINBEWoW5p7u-31" value="Dependent" style="shape=table;startSize=30;container=1;collapsible=1;childLayout=tableLayout;fixedRows=1;rowLines=0;fontStyle=1;align=center;resizeLast=1;fillColor=#f5f5f5;strokeColor=#666666;fontColor=#333333;" vertex="1" parent="1">
          <mxGeometry x="130" y="560" width="250" height="120" as="geometry">
            <mxRectangle x="460" y="110" width="90" height="30" as="alternateBounds" />
          </mxGeometry>
        </mxCell>
        <mxCell id="pjrwoAT1iINBEWoW5p7u-32" value="" style="shape=partialRectangle;collapsible=0;dropTarget=0;pointerEvents=0;fillColor=none;points=[[0,0.5],[1,0.5]];portConstraint=eastwest;top=0;left=0;right=0;bottom=1;" vertex="1" parent="pjrwoAT1iINBEWoW5p7u-31">
          <mxGeometry y="30" width="250" height="40" as="geometry" />
        </mxCell>
        <mxCell id="pjrwoAT1iINBEWoW5p7u-33" value="PK,FK1&#xa;PK" style="shape=partialRectangle;overflow=hidden;connectable=0;fillColor=none;top=0;left=0;bottom=0;right=0;fontStyle=1;align=left;" vertex="1" parent="pjrwoAT1iINBEWoW5p7u-32">
          <mxGeometry width="50" height="40" as="geometry" />
        </mxCell>
        <mxCell id="pjrwoAT1iINBEWoW5p7u-34" value="EMP_NUM&#xa;Dep_No" style="shape=partialRectangle;overflow=hidden;connectable=0;fillColor=none;top=0;left=0;bottom=0;right=0;align=left;spacingLeft=6;fontStyle=5;" vertex="1" parent="pjrwoAT1iINBEWoW5p7u-32">
          <mxGeometry x="50" width="200" height="40" as="geometry" />
        </mxCell>
        <mxCell id="pjrwoAT1iINBEWoW5p7u-35" value="" style="shape=partialRectangle;collapsible=0;dropTarget=0;pointerEvents=0;fillColor=none;points=[[0,0.5],[1,0.5]];portConstraint=eastwest;top=0;left=0;right=0;bottom=0;" vertex="1" parent="pjrwoAT1iINBEWoW5p7u-31">
          <mxGeometry y="70" width="250" height="50" as="geometry" />
        </mxCell>
        <mxCell id="pjrwoAT1iINBEWoW5p7u-36" value="" style="shape=partialRectangle;overflow=hidden;connectable=0;fillColor=none;top=0;left=0;bottom=0;right=0;" vertex="1" parent="pjrwoAT1iINBEWoW5p7u-35">
          <mxGeometry width="50" height="50" as="geometry" />
        </mxCell>
        <mxCell id="pjrwoAT1iINBEWoW5p7u-37" value="DEPENDENT" style="shape=partialRectangle;overflow=hidden;connectable=0;fillColor=none;top=0;left=0;bottom=0;right=0;align=left;spacingLeft=6;" vertex="1" parent="pjrwoAT1iINBEWoW5p7u-35">
          <mxGeometry x="50" width="200" height="50" as="geometry" />
        </mxCell>
      </root>
    </mxGraphModel>
  </diagram>
</mxfile>
